<mxfile host="app.diagrams.net" modified="2023-11-06T04:27:12.465Z" agent="Mozilla/5.0 (Windows NT 10.0; Win64; x64) AppleWebKit/537.36 (KHTML, like Gecko) Chrome/119.0.0.0 Safari/537.36" etag="nuISXTKxnhSexz6o8nFi" version="21.8.1" type="device">
  <diagram name="Page-1" id="ecVGTMwLcajovV73sp1L">
    <mxGraphModel dx="1348" dy="810" grid="1" gridSize="10" guides="1" tooltips="1" connect="1" arrows="1" fold="1" page="1" pageScale="1" pageWidth="827" pageHeight="1169" math="0" shadow="0">
      <root>
        <mxCell id="0" />
        <mxCell id="1" parent="0" />
        <mxCell id="s5zwaL8GXxUxst-mYbou-1" value="&lt;span style=&quot;font-size: 14px;&quot;&gt;Flowmap Sistem Lama&lt;/span&gt;&lt;br style=&quot;border-color: var(--border-color); font-weight: 400;&quot;&gt;&lt;b style=&quot;border-color: var(--border-color);&quot;&gt;&lt;font style=&quot;border-color: var(--border-color); font-size: 18px;&quot;&gt;APLIKASI ADMINISTRASI DAN PENGARSIPAN SURAT&lt;/font&gt;&lt;/b&gt;" style="swimlane;childLayout=stackLayout;resizeParent=1;resizeParentMax=0;startSize=50;html=1;" vertex="1" parent="1">
          <mxGeometry x="5.940000000000001" y="50" width="802.5" height="1020" as="geometry" />
        </mxCell>
        <mxCell id="s5zwaL8GXxUxst-mYbou-2" value="Lembaga Luar" style="swimlane;startSize=20;html=1;fillColor=#f5f5f5;gradientColor=#b3b3b3;strokeColor=#666666;" vertex="1" parent="s5zwaL8GXxUxst-mYbou-1">
          <mxGeometry y="50" width="120" height="970" as="geometry" />
        </mxCell>
        <mxCell id="s5zwaL8GXxUxst-mYbou-8" value="Surat Masuk" style="strokeWidth=2;html=1;shape=mxgraph.flowchart.document2;whiteSpace=wrap;size=0.25;fillColor=#FF8282;strokeColor=none;fontStyle=0" vertex="1" parent="s5zwaL8GXxUxst-mYbou-2">
          <mxGeometry x="22.5" y="40" width="75" height="50" as="geometry" />
        </mxCell>
        <mxCell id="s5zwaL8GXxUxst-mYbou-47" value="Surat Balasan" style="strokeWidth=0;html=1;shape=mxgraph.flowchart.document2;whiteSpace=wrap;size=0.25;fillColor=#004ADE;strokeColor=none;fontColor=#ffffff;" vertex="1" parent="s5zwaL8GXxUxst-mYbou-2">
          <mxGeometry x="22.5" y="340" width="75" height="50" as="geometry" />
        </mxCell>
        <mxCell id="s5zwaL8GXxUxst-mYbou-3" value="Persuratan TU" style="swimlane;startSize=20;html=1;fillColor=#f5f5f5;gradientColor=#b3b3b3;strokeColor=#666666;" vertex="1" parent="s5zwaL8GXxUxst-mYbou-1">
          <mxGeometry x="120" y="50" width="310" height="970" as="geometry" />
        </mxCell>
        <mxCell id="s5zwaL8GXxUxst-mYbou-12" style="edgeStyle=orthogonalEdgeStyle;rounded=0;orthogonalLoop=1;jettySize=auto;html=1;entryX=0;entryY=0.5;entryDx=0;entryDy=0;fillColor=#f8cecc;strokeColor=#b85450;" edge="1" parent="s5zwaL8GXxUxst-mYbou-3" source="s5zwaL8GXxUxst-mYbou-9" target="s5zwaL8GXxUxst-mYbou-10">
          <mxGeometry relative="1" as="geometry" />
        </mxCell>
        <mxCell id="s5zwaL8GXxUxst-mYbou-26" style="edgeStyle=orthogonalEdgeStyle;rounded=0;orthogonalLoop=1;jettySize=auto;html=1;entryX=0.5;entryY=0;entryDx=0;entryDy=0;fillColor=#f8cecc;strokeColor=#b85450;" edge="1" parent="s5zwaL8GXxUxst-mYbou-3" source="s5zwaL8GXxUxst-mYbou-9" target="s5zwaL8GXxUxst-mYbou-25">
          <mxGeometry relative="1" as="geometry" />
        </mxCell>
        <mxCell id="s5zwaL8GXxUxst-mYbou-9" value="Surat Masuk" style="strokeWidth=2;html=1;shape=mxgraph.flowchart.document2;whiteSpace=wrap;size=0.25;fillColor=#f8cecc;strokeColor=#b85450;" vertex="1" parent="s5zwaL8GXxUxst-mYbou-3">
          <mxGeometry x="11" y="110" width="75" height="50" as="geometry" />
        </mxCell>
        <mxCell id="s5zwaL8GXxUxst-mYbou-10" value="Disposisi" style="verticalLabelPosition=middle;verticalAlign=middle;html=1;shape=trapezoid;perimeter=trapezoidPerimeter;whiteSpace=wrap;size=0.23;arcSize=10;flipV=1;labelPosition=center;align=center;fillColor=#f8cecc;strokeColor=#b85450;" vertex="1" parent="s5zwaL8GXxUxst-mYbou-3">
          <mxGeometry x="117.5" y="115" width="76" height="40" as="geometry" />
        </mxCell>
        <mxCell id="s5zwaL8GXxUxst-mYbou-35" style="edgeStyle=orthogonalEdgeStyle;rounded=0;orthogonalLoop=1;jettySize=auto;html=1;entryX=0.5;entryY=0;entryDx=0;entryDy=0;fillColor=#dae8fc;strokeColor=#6c8ebf;" edge="1" parent="s5zwaL8GXxUxst-mYbou-3" source="s5zwaL8GXxUxst-mYbou-23" target="s5zwaL8GXxUxst-mYbou-34">
          <mxGeometry relative="1" as="geometry" />
        </mxCell>
        <mxCell id="s5zwaL8GXxUxst-mYbou-23" value="Hasil Tindak Lanjut" style="strokeWidth=2;html=1;shape=mxgraph.flowchart.document2;whiteSpace=wrap;size=0.25;fillColor=#f8cecc;strokeColor=#b85450;" vertex="1" parent="s5zwaL8GXxUxst-mYbou-3">
          <mxGeometry x="214" y="187.5" width="75" height="50" as="geometry" />
        </mxCell>
        <mxCell id="s5zwaL8GXxUxst-mYbou-25" value="Pendataan" style="verticalLabelPosition=middle;verticalAlign=middle;html=1;shape=trapezoid;perimeter=trapezoidPerimeter;whiteSpace=wrap;size=0.23;arcSize=10;flipV=1;labelPosition=center;align=center;fillColor=#f8cecc;strokeColor=#b85450;" vertex="1" parent="s5zwaL8GXxUxst-mYbou-3">
          <mxGeometry x="6" y="187.5" width="84" height="40" as="geometry" />
        </mxCell>
        <mxCell id="s5zwaL8GXxUxst-mYbou-46" style="edgeStyle=orthogonalEdgeStyle;rounded=0;orthogonalLoop=1;jettySize=auto;html=1;fillColor=#dae8fc;strokeColor=#6c8ebf;" edge="1" parent="s5zwaL8GXxUxst-mYbou-3" source="s5zwaL8GXxUxst-mYbou-34" target="s5zwaL8GXxUxst-mYbou-45">
          <mxGeometry relative="1" as="geometry" />
        </mxCell>
        <mxCell id="s5zwaL8GXxUxst-mYbou-34" value="Pembuatan Surat balasan" style="verticalLabelPosition=middle;verticalAlign=middle;html=1;shape=trapezoid;perimeter=trapezoidPerimeter;whiteSpace=wrap;size=0.23;arcSize=10;flipV=1;labelPosition=center;align=center;fillColor=#dae8fc;strokeColor=#6c8ebf;" vertex="1" parent="s5zwaL8GXxUxst-mYbou-3">
          <mxGeometry x="100" y="345" width="110" height="40" as="geometry" />
        </mxCell>
        <mxCell id="s5zwaL8GXxUxst-mYbou-45" value="Surat Balasan" style="strokeWidth=2;html=1;shape=mxgraph.flowchart.document2;whiteSpace=wrap;size=0.25;fillColor=#dae8fc;strokeColor=#6c8ebf;" vertex="1" parent="s5zwaL8GXxUxst-mYbou-3">
          <mxGeometry x="11" y="340" width="75" height="50" as="geometry" />
        </mxCell>
        <mxCell id="s5zwaL8GXxUxst-mYbou-49" value="Data&lt;br&gt;Surat Masuk" style="strokeWidth=2;html=1;shape=mxgraph.flowchart.document2;whiteSpace=wrap;size=0.25;fillColor=#f8cecc;strokeColor=#b85450;" vertex="1" parent="s5zwaL8GXxUxst-mYbou-3">
          <mxGeometry x="11" y="260" width="75" height="50" as="geometry" />
        </mxCell>
        <mxCell id="s5zwaL8GXxUxst-mYbou-50" style="edgeStyle=orthogonalEdgeStyle;rounded=0;orthogonalLoop=1;jettySize=auto;html=1;entryX=0.5;entryY=0;entryDx=0;entryDy=0;entryPerimeter=0;fillColor=#f8cecc;strokeColor=#b85450;" edge="1" parent="s5zwaL8GXxUxst-mYbou-3" source="s5zwaL8GXxUxst-mYbou-25" target="s5zwaL8GXxUxst-mYbou-49">
          <mxGeometry relative="1" as="geometry" />
        </mxCell>
        <mxCell id="s5zwaL8GXxUxst-mYbou-73" style="edgeStyle=orthogonalEdgeStyle;rounded=0;orthogonalLoop=1;jettySize=auto;html=1;fillColor=#dae8fc;strokeColor=#6c8ebf;" edge="1" parent="s5zwaL8GXxUxst-mYbou-3" source="s5zwaL8GXxUxst-mYbou-70" target="s5zwaL8GXxUxst-mYbou-72">
          <mxGeometry relative="1" as="geometry" />
        </mxCell>
        <mxCell id="s5zwaL8GXxUxst-mYbou-70" value="Pembuatan &lt;br&gt;Surat Keluar" style="verticalLabelPosition=middle;verticalAlign=middle;html=1;shape=trapezoid;perimeter=trapezoidPerimeter;whiteSpace=wrap;size=0.23;arcSize=10;flipV=1;labelPosition=center;align=center;fillColor=#dae8fc;strokeColor=#6c8ebf;" vertex="1" parent="s5zwaL8GXxUxst-mYbou-3">
          <mxGeometry x="198.75" y="410" width="105.5" height="50" as="geometry" />
        </mxCell>
        <mxCell id="s5zwaL8GXxUxst-mYbou-72" value="Surat Keluar" style="strokeWidth=2;html=1;shape=mxgraph.flowchart.document2;whiteSpace=wrap;size=0.25;fillColor=#dae8fc;strokeColor=#6c8ebf;" vertex="1" parent="s5zwaL8GXxUxst-mYbou-3">
          <mxGeometry x="11" y="410" width="75" height="50" as="geometry" />
        </mxCell>
        <mxCell id="s5zwaL8GXxUxst-mYbou-87" style="edgeStyle=orthogonalEdgeStyle;rounded=0;orthogonalLoop=1;jettySize=auto;html=1;entryX=1;entryY=0.5;entryDx=0;entryDy=0;fillColor=#dae8fc;strokeColor=#6c8ebf;" edge="1" parent="s5zwaL8GXxUxst-mYbou-3" source="s5zwaL8GXxUxst-mYbou-81" target="s5zwaL8GXxUxst-mYbou-85">
          <mxGeometry relative="1" as="geometry" />
        </mxCell>
        <mxCell id="s5zwaL8GXxUxst-mYbou-81" value="Hasil Tindak Lanjut" style="strokeWidth=2;html=1;shape=mxgraph.flowchart.document2;whiteSpace=wrap;size=0.25;fillColor=#dae8fc;strokeColor=#6c8ebf;" vertex="1" parent="s5zwaL8GXxUxst-mYbou-3">
          <mxGeometry x="214" y="550" width="75" height="50" as="geometry" />
        </mxCell>
        <mxCell id="s5zwaL8GXxUxst-mYbou-85" value="Pendataan" style="verticalLabelPosition=middle;verticalAlign=middle;html=1;shape=trapezoid;perimeter=trapezoidPerimeter;whiteSpace=wrap;size=0.23;arcSize=10;flipV=1;labelPosition=center;align=center;fillColor=#dae8fc;strokeColor=#6c8ebf;" vertex="1" parent="s5zwaL8GXxUxst-mYbou-3">
          <mxGeometry x="109.5" y="555" width="84" height="40" as="geometry" />
        </mxCell>
        <mxCell id="s5zwaL8GXxUxst-mYbou-86" value="Data&lt;br&gt;Surat Masuk" style="strokeWidth=2;html=1;shape=mxgraph.flowchart.document2;whiteSpace=wrap;size=0.25;fillColor=#dae8fc;strokeColor=#6c8ebf;" vertex="1" parent="s5zwaL8GXxUxst-mYbou-3">
          <mxGeometry x="15" y="550" width="75" height="50" as="geometry" />
        </mxCell>
        <mxCell id="s5zwaL8GXxUxst-mYbou-88" style="edgeStyle=orthogonalEdgeStyle;rounded=0;orthogonalLoop=1;jettySize=auto;html=1;entryX=1;entryY=0.5;entryDx=0;entryDy=0;entryPerimeter=0;fillColor=#dae8fc;strokeColor=#6c8ebf;" edge="1" parent="s5zwaL8GXxUxst-mYbou-3" source="s5zwaL8GXxUxst-mYbou-85" target="s5zwaL8GXxUxst-mYbou-86">
          <mxGeometry relative="1" as="geometry" />
        </mxCell>
        <mxCell id="s5zwaL8GXxUxst-mYbou-4" value="Sekolah" style="swimlane;startSize=20;html=1;fillColor=#f5f5f5;strokeColor=#666666;gradientColor=#b3b3b3;" vertex="1" parent="s5zwaL8GXxUxst-mYbou-1">
          <mxGeometry x="430" y="50" width="150" height="970" as="geometry" />
        </mxCell>
        <mxCell id="s5zwaL8GXxUxst-mYbou-18" style="edgeStyle=orthogonalEdgeStyle;rounded=0;orthogonalLoop=1;jettySize=auto;html=1;fillColor=#f8cecc;strokeColor=#b85450;" edge="1" parent="s5zwaL8GXxUxst-mYbou-4" source="s5zwaL8GXxUxst-mYbou-14" target="s5zwaL8GXxUxst-mYbou-17">
          <mxGeometry relative="1" as="geometry" />
        </mxCell>
        <mxCell id="s5zwaL8GXxUxst-mYbou-14" value="Surat Masuk&lt;br&gt;Disposisi" style="strokeWidth=2;html=1;shape=mxgraph.flowchart.multi-document;whiteSpace=wrap;fillColor=#f8cecc;strokeColor=#b85450;" vertex="1" parent="s5zwaL8GXxUxst-mYbou-4">
          <mxGeometry x="37" y="110" width="76" height="50" as="geometry" />
        </mxCell>
        <mxCell id="s5zwaL8GXxUxst-mYbou-17" value="Tindak&lt;br&gt;Lanjut" style="strokeWidth=2;html=1;shape=mxgraph.flowchart.decision;whiteSpace=wrap;fillColor=#f8cecc;strokeColor=#b85450;" vertex="1" parent="s5zwaL8GXxUxst-mYbou-4">
          <mxGeometry x="42" y="180" width="66" height="65" as="geometry" />
        </mxCell>
        <mxCell id="s5zwaL8GXxUxst-mYbou-68" value="Permintaan &lt;br&gt;Surat Keluar&amp;nbsp;" style="verticalLabelPosition=middle;verticalAlign=middle;html=1;shape=trapezoid;perimeter=trapezoidPerimeter;whiteSpace=wrap;size=0.23;arcSize=10;flipV=1;labelPosition=center;align=center;fillColor=#004ADE;strokeColor=none;fontColor=#ffffff;strokeWidth=0;" vertex="1" parent="s5zwaL8GXxUxst-mYbou-4">
          <mxGeometry x="22.25" y="40" width="105.5" height="50" as="geometry" />
        </mxCell>
        <mxCell id="s5zwaL8GXxUxst-mYbou-83" style="edgeStyle=orthogonalEdgeStyle;rounded=0;orthogonalLoop=1;jettySize=auto;html=1;fillColor=#dae8fc;strokeColor=#6c8ebf;" edge="1" parent="s5zwaL8GXxUxst-mYbou-4" source="s5zwaL8GXxUxst-mYbou-76" target="s5zwaL8GXxUxst-mYbou-80">
          <mxGeometry relative="1" as="geometry" />
        </mxCell>
        <mxCell id="s5zwaL8GXxUxst-mYbou-76" value="Tindak&lt;br&gt;Lanjut" style="strokeWidth=2;html=1;shape=mxgraph.flowchart.decision;whiteSpace=wrap;fillColor=#dae8fc;strokeColor=#6c8ebf;" vertex="1" parent="s5zwaL8GXxUxst-mYbou-4">
          <mxGeometry x="42" y="460" width="66" height="65" as="geometry" />
        </mxCell>
        <mxCell id="s5zwaL8GXxUxst-mYbou-80" value="Hasil Tindak Lanjut" style="strokeWidth=0;html=1;shape=mxgraph.flowchart.document2;whiteSpace=wrap;size=0.25;fillColor=#004ADE;strokeColor=none;fontColor=#ffffff;" vertex="1" parent="s5zwaL8GXxUxst-mYbou-4">
          <mxGeometry x="37.5" y="550" width="75" height="50" as="geometry" />
        </mxCell>
        <mxCell id="s5zwaL8GXxUxst-mYbou-11" style="edgeStyle=orthogonalEdgeStyle;rounded=0;orthogonalLoop=1;jettySize=auto;html=1;exitX=1;exitY=0.5;exitDx=0;exitDy=0;exitPerimeter=0;fillColor=#f8cecc;strokeColor=#b85450;" edge="1" parent="s5zwaL8GXxUxst-mYbou-1" source="s5zwaL8GXxUxst-mYbou-8" target="s5zwaL8GXxUxst-mYbou-9">
          <mxGeometry relative="1" as="geometry" />
        </mxCell>
        <mxCell id="s5zwaL8GXxUxst-mYbou-15" style="edgeStyle=orthogonalEdgeStyle;rounded=0;orthogonalLoop=1;jettySize=auto;html=1;entryX=0;entryY=0.5;entryDx=0;entryDy=0;entryPerimeter=0;fillColor=#f8cecc;strokeColor=#b85450;" edge="1" parent="s5zwaL8GXxUxst-mYbou-1" source="s5zwaL8GXxUxst-mYbou-10" target="s5zwaL8GXxUxst-mYbou-14">
          <mxGeometry relative="1" as="geometry" />
        </mxCell>
        <mxCell id="s5zwaL8GXxUxst-mYbou-24" style="edgeStyle=orthogonalEdgeStyle;rounded=0;orthogonalLoop=1;jettySize=auto;html=1;entryX=1;entryY=0.5;entryDx=0;entryDy=0;entryPerimeter=0;fillColor=#f8cecc;strokeColor=#b85450;" edge="1" parent="s5zwaL8GXxUxst-mYbou-1" source="s5zwaL8GXxUxst-mYbou-17" target="s5zwaL8GXxUxst-mYbou-23">
          <mxGeometry relative="1" as="geometry" />
        </mxCell>
        <mxCell id="s5zwaL8GXxUxst-mYbou-48" style="edgeStyle=orthogonalEdgeStyle;rounded=0;orthogonalLoop=1;jettySize=auto;html=1;entryX=1;entryY=0.5;entryDx=0;entryDy=0;entryPerimeter=0;fillColor=#dae8fc;strokeColor=#6c8ebf;" edge="1" parent="s5zwaL8GXxUxst-mYbou-1" source="s5zwaL8GXxUxst-mYbou-45" target="s5zwaL8GXxUxst-mYbou-47">
          <mxGeometry relative="1" as="geometry" />
        </mxCell>
        <mxCell id="s5zwaL8GXxUxst-mYbou-69" style="edgeStyle=orthogonalEdgeStyle;rounded=0;orthogonalLoop=1;jettySize=auto;html=1;entryX=0.5;entryY=0;entryDx=0;entryDy=0;entryPerimeter=0;fillColor=#d5e8d4;strokeColor=#82b366;" edge="1" parent="s5zwaL8GXxUxst-mYbou-1" source="s5zwaL8GXxUxst-mYbou-49" target="s5zwaL8GXxUxst-mYbou-52">
          <mxGeometry relative="1" as="geometry" />
        </mxCell>
        <mxCell id="s5zwaL8GXxUxst-mYbou-79" style="edgeStyle=orthogonalEdgeStyle;rounded=0;orthogonalLoop=1;jettySize=auto;html=1;entryX=0;entryY=0.5;entryDx=0;entryDy=0;entryPerimeter=0;fillColor=#dae8fc;strokeColor=#6c8ebf;" edge="1" parent="s5zwaL8GXxUxst-mYbou-1" source="s5zwaL8GXxUxst-mYbou-72" target="s5zwaL8GXxUxst-mYbou-76">
          <mxGeometry relative="1" as="geometry">
            <Array as="points">
              <mxPoint x="168" y="543" />
            </Array>
          </mxGeometry>
        </mxCell>
        <mxCell id="s5zwaL8GXxUxst-mYbou-82" style="edgeStyle=orthogonalEdgeStyle;rounded=0;orthogonalLoop=1;jettySize=auto;html=1;entryX=1;entryY=0.5;entryDx=0;entryDy=0;entryPerimeter=0;fillColor=#dae8fc;strokeColor=#6c8ebf;" edge="1" parent="s5zwaL8GXxUxst-mYbou-1" source="s5zwaL8GXxUxst-mYbou-80" target="s5zwaL8GXxUxst-mYbou-81">
          <mxGeometry relative="1" as="geometry" />
        </mxCell>
        <mxCell id="s5zwaL8GXxUxst-mYbou-6" value="Tata Usaha" style="swimlane;startSize=20;html=1;fillColor=#f5f5f5;gradientColor=#b3b3b3;strokeColor=none;" vertex="1" parent="s5zwaL8GXxUxst-mYbou-1">
          <mxGeometry x="580" y="50" width="222.5" height="970" as="geometry" />
        </mxCell>
        <mxCell id="s5zwaL8GXxUxst-mYbou-52" value="Data Surat Masuk" style="strokeWidth=2;html=1;shape=mxgraph.flowchart.merge_or_storage;whiteSpace=wrap;fillColor=#365E0D;strokeColor=#2D7600;fontColor=#ffffff;fontStyle=0" vertex="1" parent="s5zwaL8GXxUxst-mYbou-6">
          <mxGeometry x="19.060000000000002" y="320" width="90" height="60" as="geometry" />
        </mxCell>
        <mxCell id="s5zwaL8GXxUxst-mYbou-53" value="Data Surat Keluar" style="strokeWidth=2;html=1;shape=mxgraph.flowchart.merge_or_storage;whiteSpace=wrap;fillColor=#365E0D;strokeColor=#2D7600;fontColor=#ffffff;fontStyle=0" vertex="1" parent="s5zwaL8GXxUxst-mYbou-6">
          <mxGeometry x="19.060000000000002" y="650" width="90" height="60" as="geometry" />
        </mxCell>
        <mxCell id="s5zwaL8GXxUxst-mYbou-94" value="Hasil Tindak Lanjut&lt;br&gt;Surat Keluar" style="strokeWidth=2;html=1;shape=mxgraph.flowchart.document2;whiteSpace=wrap;size=0.25;fillColor=#d5e8d4;strokeColor=#82b366;" vertex="1" parent="s5zwaL8GXxUxst-mYbou-6">
          <mxGeometry x="24.05999999999989" y="760" width="80" height="60" as="geometry" />
        </mxCell>
        <mxCell id="s5zwaL8GXxUxst-mYbou-95" value="Hasil Tindak Lanjut&lt;br&gt;Surat Masuk" style="strokeWidth=2;html=1;shape=mxgraph.flowchart.document2;whiteSpace=wrap;size=0.25;fillColor=#d5e8d4;strokeColor=#82b366;" vertex="1" parent="s5zwaL8GXxUxst-mYbou-6">
          <mxGeometry x="123.11999999999989" y="760" width="78.75" height="60" as="geometry" />
        </mxCell>
        <mxCell id="s5zwaL8GXxUxst-mYbou-104" style="edgeStyle=orthogonalEdgeStyle;rounded=0;orthogonalLoop=1;jettySize=auto;html=1;entryX=0.5;entryY=0;entryDx=0;entryDy=0;entryPerimeter=0;fillColor=#d5e8d4;strokeColor=#82b366;" edge="1" parent="s5zwaL8GXxUxst-mYbou-6" source="s5zwaL8GXxUxst-mYbou-94" target="s5zwaL8GXxUxst-mYbou-51">
          <mxGeometry relative="1" as="geometry">
            <Array as="points">
              <mxPoint x="63.059999999999945" y="840" />
              <mxPoint x="162.05999999999995" y="840" />
            </Array>
          </mxGeometry>
        </mxCell>
        <mxCell id="s5zwaL8GXxUxst-mYbou-96" style="edgeStyle=orthogonalEdgeStyle;rounded=0;orthogonalLoop=1;jettySize=auto;html=1;fillColor=#d5e8d4;strokeColor=#82b366;" edge="1" parent="s5zwaL8GXxUxst-mYbou-6" source="s5zwaL8GXxUxst-mYbou-95" target="s5zwaL8GXxUxst-mYbou-51">
          <mxGeometry relative="1" as="geometry" />
        </mxCell>
        <mxCell id="s5zwaL8GXxUxst-mYbou-51" value="Arsip &lt;br&gt;Surat" style="strokeWidth=2;html=1;shape=mxgraph.flowchart.merge_or_storage;whiteSpace=wrap;fillColor=#365E0D;strokeColor=#2D7600;fontColor=#ffffff;fontStyle=0" vertex="1" parent="s5zwaL8GXxUxst-mYbou-6">
          <mxGeometry x="117.5" y="870" width="90" height="60" as="geometry" />
        </mxCell>
        <mxCell id="s5zwaL8GXxUxst-mYbou-108" style="edgeStyle=orthogonalEdgeStyle;rounded=0;orthogonalLoop=1;jettySize=auto;html=1;entryX=1;entryY=0.5;entryDx=0;entryDy=0;fillColor=#dae8fc;strokeColor=#6c8ebf;" edge="1" parent="s5zwaL8GXxUxst-mYbou-1" source="s5zwaL8GXxUxst-mYbou-68" target="s5zwaL8GXxUxst-mYbou-70">
          <mxGeometry relative="1" as="geometry">
            <Array as="points">
              <mxPoint x="564" y="115" />
              <mxPoint x="564" y="485" />
            </Array>
          </mxGeometry>
        </mxCell>
        <mxCell id="s5zwaL8GXxUxst-mYbou-109" style="edgeStyle=orthogonalEdgeStyle;rounded=0;orthogonalLoop=1;jettySize=auto;html=1;entryX=0.5;entryY=0;entryDx=0;entryDy=0;entryPerimeter=0;fillColor=#d5e8d4;strokeColor=#82b366;" edge="1" parent="s5zwaL8GXxUxst-mYbou-1" source="s5zwaL8GXxUxst-mYbou-86" target="s5zwaL8GXxUxst-mYbou-53">
          <mxGeometry relative="1" as="geometry">
            <Array as="points">
              <mxPoint x="172" y="660" />
              <mxPoint x="659" y="660" />
            </Array>
          </mxGeometry>
        </mxCell>
        <mxCell id="s5zwaL8GXxUxst-mYbou-111" style="edgeStyle=orthogonalEdgeStyle;rounded=0;orthogonalLoop=1;jettySize=auto;html=1;entryX=0.5;entryY=0;entryDx=0;entryDy=0;entryPerimeter=0;fillColor=#d5e8d4;strokeColor=#82b366;" edge="1" parent="s5zwaL8GXxUxst-mYbou-1" source="s5zwaL8GXxUxst-mYbou-81" target="s5zwaL8GXxUxst-mYbou-94">
          <mxGeometry relative="1" as="geometry">
            <Array as="points">
              <mxPoint x="371" y="770" />
              <mxPoint x="644" y="770" />
            </Array>
          </mxGeometry>
        </mxCell>
        <mxCell id="s5zwaL8GXxUxst-mYbou-112" style="edgeStyle=orthogonalEdgeStyle;rounded=0;orthogonalLoop=1;jettySize=auto;html=1;fillColor=#d5e8d4;strokeColor=#82b366;" edge="1" parent="s5zwaL8GXxUxst-mYbou-1" source="s5zwaL8GXxUxst-mYbou-23" target="s5zwaL8GXxUxst-mYbou-95">
          <mxGeometry relative="1" as="geometry">
            <Array as="points">
              <mxPoint x="371" y="320" />
              <mxPoint x="742" y="320" />
            </Array>
          </mxGeometry>
        </mxCell>
      </root>
    </mxGraphModel>
  </diagram>
</mxfile>
